<?xml version="1.0" standalone="no"?>
<!DOCTYPE svg PUBLIC "-//W3C//DTD SVG 20010904//EN"
 "http://www.w3.org/TR/2001/REC-SVG-20010904/DTD/svg10.dtd">
<svg version="1.0" xmlns="http://www.w3.org/2000/svg"
 width="950.000000pt" height="772.000000pt" viewBox="0 0 950.000000 772.000000"
 preserveAspectRatio="xMidYMid meet">

<g transform="translate(0.000000,772.000000) scale(0.100000,-0.100000)"
fill="#000000" stroke="none">
<path d="M5081 7685 c-29 -26 -84 -122 -227 -390 l-189 -355 -45 48 c-25 26
-61 58 -80 72 -19 13 -37 27 -40 30 -3 3 -43 24 -91 48 -84 42 -86 42 -218 47
-74 3 -141 10 -150 15 -10 5 -23 5 -31 0 -8 -5 -21 -5 -31 1 -33 17 -191 10
-270 -12 -41 -11 -92 -25 -114 -30 -46 -11 -85 -29 -173 -81 -34 -21 -65 -38
-67 -38 -25 0 -315 -243 -315 -264 0 -3 -18 -43 -41 -88 -58 -119 -69 -195
-61 -433 0 -14 0 -35 0 -47 -1 -13 4 -63 10 -113 7 -49 14 -112 16 -140 5 -64
16 -104 33 -132 20 -30 9 -43 -35 -43 -28 0 -33 -3 -24 -12 17 -17 16 -51 -2
-45 -8 3 -22 0 -32 -7 -15 -11 -16 -24 -11 -92 10 -119 53 -307 78 -339 4 -5
10 -27 14 -48 4 -20 11 -40 16 -43 5 -3 9 -25 9 -49 0 -35 4 -45 20 -50 23 -7
55 -71 65 -127 3 -21 9 -38 13 -38 5 0 16 -24 27 -52 10 -29 22 -55 27 -59 11
-7 27 -99 20 -118 -3 -9 -10 -19 -16 -23 -14 -10 -35 -96 -35 -148 0 -25 10
-71 24 -105 14 -33 25 -63 25 -67 0 -11 94 -134 160 -210 26 -30 73 -47 153
-55 35 -4 47 -2 47 9 0 18 37 41 46 27 3 -6 18 -15 32 -21 l27 -10 -22 -11
c-23 -10 -31 -27 -14 -27 5 0 12 -13 16 -30 4 -16 17 -38 31 -49 13 -10 24
-24 24 -30 0 -20 30 -12 53 15 12 14 20 28 19 31 -2 3 2 9 8 13 16 10 -27 70
-49 70 -13 0 -13 2 -2 9 8 5 11 16 7 29 -5 15 -2 22 14 27 27 8 26 23 -2 27
-13 3 35 2 105 0 82 -3 136 -1 150 6 12 6 33 13 47 15 14 2 4 5 -22 6 -32 1
-48 5 -48 14 0 16 62 47 93 47 38 0 227 76 247 99 3 3 21 15 40 25 19 11 45
30 57 43 12 13 26 23 30 23 14 1 70 63 109 120 l37 55 -7 -93 c-7 -105 -25
-154 -91 -247 -48 -68 -120 -145 -135 -145 -5 0 -10 -4 -10 -8 0 -4 -14 -16
-31 -26 -16 -10 -44 -31 -60 -47 -16 -16 -34 -29 -39 -29 -4 0 -10 -3 -12 -7
-1 -5 -32 -32 -68 -62 -36 -29 -66 -57 -68 -62 -2 -5 -8 -9 -13 -9 -8 0 -27
-14 -63 -45 -32 -29 -95 -36 -168 -19 -32 7 -36 -4 -10 -32 29 -33 55 -92 49
-114 -5 -20 -5 -20 26 2 18 12 34 25 37 28 22 25 245 180 260 180 6 0 13 7 16
15 4 8 13 15 20 15 8 0 29 21 47 47 17 25 43 56 57 67 71 61 169 175 194 226
11 23 29 53 54 87 12 17 22 34 22 38 0 3 28 62 61 131 35 70 59 132 56 142 -4
16 0 18 22 13 48 -11 58 -22 103 -111 13 -25 25 -47 28 -50 5 -5 18 -29 87
-160 86 -163 69 -149 313 -252 14 -5 39 -16 55 -23 17 -7 48 -20 70 -30 22 -9
49 -20 60 -25 11 -5 41 -18 67 -29 26 -12 52 -21 57 -21 6 0 11 -4 11 -10 0
-5 7 -10 15 -10 15 0 106 -41 250 -112 108 -53 113 -56 175 -108 30 -25 66
-54 79 -65 58 -48 211 -201 211 -211 0 -7 3 -14 8 -16 10 -5 100 -137 174
-258 57 -93 169 -311 227 -442 12 -26 24 -49 29 -52 4 -2 245 451 536 1007
291 557 533 1018 539 1025 7 9 97 12 387 12 250 0 388 4 409 11 61 21 61 24
61 489 0 446 -2 465 -47 486 -10 4 -77 10 -149 13 l-131 6 489 933 c295 564
488 944 488 960 0 15 -9 42 -20 60 l-20 32 -2080 0 -2080 0 -39 -35z m-624
-1140 c21 -10 44 -24 51 -32 8 -7 30 -22 51 -32 40 -21 111 -86 111 -102 0
-16 25 -5 27 12 1 8 5 32 8 53 l6 39 20 -33 c11 -17 24 -53 29 -78 11 -58 26
-98 39 -107 6 -3 11 -13 11 -22 0 -12 -3 -13 -14 -4 -11 9 -16 3 -25 -31 -18
-67 -30 -231 -20 -275 5 -21 9 -57 9 -80 0 -37 -3 -43 -20 -43 -11 0 -23 -7
-26 -15 -4 -9 -19 -15 -38 -15 -27 -1 -29 -2 -12 -11 10 -6 33 -9 52 -6 31 5
35 3 40 -21 3 -15 10 -43 15 -62 12 -47 11 -190 -1 -226 -5 -16 -14 -67 -20
-114 -19 -171 -33 -265 -41 -270 -3 -3 -8 -14 -10 -24 -5 -25 -29 -33 -29 -9
0 14 -4 12 -18 -10 -9 -15 -22 -25 -29 -23 -6 3 -22 -7 -35 -21 -13 -14 -31
-34 -40 -44 -10 -10 -18 -28 -18 -39 0 -15 -7 -20 -24 -20 -17 0 -27 -7 -32
-22 -10 -34 -23 -46 -42 -41 -14 3 -18 15 -19 55 0 31 -6 54 -14 59 -10 6 -13
32 -12 99 1 70 -1 90 -12 90 -7 0 -23 12 -34 26 -40 51 -68 66 -134 69 -82 3
-127 14 -127 31 0 19 -14 18 -62 -6 -39 -19 -65 -19 -53 0 3 5 -4 11 -15 15
-10 3 -40 27 -66 51 l-47 46 -44 -11 c-50 -13 -83 -2 -83 28 0 29 25 45 50 31
18 -9 25 -8 41 6 10 9 19 24 19 33 0 9 9 33 20 54 11 20 20 46 20 56 0 11 5
23 10 26 15 9 12 45 -3 51 -11 4 -7 18 13 62 15 31 31 77 35 102 8 49 18 60
53 60 12 0 22 6 22 14 0 17 -85 31 -131 21 -21 -5 -29 -4 -25 3 3 6 -2 17 -12
24 -11 7 -22 24 -27 38 -9 31 -61 80 -86 80 -10 0 -21 5 -25 11 -5 8 -30 10
-83 5 -42 -4 -83 -7 -91 -8 -35 -1 -110 -20 -110 -28 0 -4 -11 -11 -25 -14
-13 -3 -41 -22 -62 -41 -21 -19 -42 -35 -46 -35 -4 0 -4 -8 1 -17 5 -10 7 -24
5 -30 -6 -16 -33 -17 -33 -2 0 7 -18 10 -47 9 -71 -4 -73 -3 -73 32 0 28 49
122 72 139 5 3 9 53 9 112 1 78 -4 118 -16 152 -16 39 -16 53 -6 99 18 79 27
84 155 84 60 0 111 4 115 9 9 13 91 14 91 1 0 -6 8 -1 19 10 10 12 25 22 34
22 9 0 19 5 22 10 9 15 198 13 214 -2 19 -20 298 -17 331 2 39 23 246 19 297
-5z m-862 -696 c11 -16 0 -21 -54 -27 -46 -4 -50 -3 -48 17 1 18 8 21 49 21
26 0 50 -5 53 -11z m-309 -36 c3 -10 10 -26 15 -35 13 -26 11 -41 -6 -34 -16
6 -19 -11 -9 -61 12 -59 143 -93 289 -74 88 11 105 5 105 -35 0 -14 6 -24 14
-24 37 0 16 -43 -62 -128 -29 -32 -36 -61 -29 -119 5 -43 3 -48 -38 -89 -55
-55 -90 -114 -109 -184 -24 -91 -22 -89 -64 -78 -43 12 -93 46 -142 98 -24 26
-47 40 -75 45 -46 8 -59 23 -79 90 -34 120 -45 462 -15 481 5 3 9 27 9 53 0
64 10 72 72 55 27 -7 53 -15 56 -18 5 -6 5 -53 -1 -101 -1 -14 5 -21 21 -23
19 -3 22 1 22 27 0 16 -4 33 -10 36 -11 7 -14 94 -4 119 8 21 33 20 40 -1z
m364 -48 c10 -12 10 -15 -4 -15 -9 0 -16 7 -16 15 0 8 2 15 4 15 2 0 9 -7 16
-15z m1308 -45 c20 -18 22 -31 22 -112 0 -83 -4 -105 -47 -227 -25 -75 -50
-137 -55 -139 -4 -2 -8 -11 -8 -21 0 -9 -7 -26 -15 -37 -8 -10 -15 -33 -15
-51 0 -36 -21 -48 -64 -37 -29 7 -30 11 -16 50 6 14 15 54 20 88 6 33 15 86
20 116 6 30 11 114 12 185 1 145 12 191 50 198 50 10 75 6 96 -13z m-1948 -83
c0 -29 -22 -100 -36 -117 -7 -8 -15 -26 -18 -40 -2 -14 -3 13 -1 60 4 102 18
148 40 130 8 -7 15 -22 15 -33z m3340 -150 c0 -7 -5 -18 -12 -25 -9 -9 -9 -12
0 -12 7 0 12 -9 12 -20 0 -11 -4 -20 -10 -20 -5 0 -10 -20 -10 -45 0 -38 -3
-45 -20 -45 -17 0 -20 7 -20 45 0 25 -4 45 -10 45 -5 0 -10 9 -10 20 0 11 5
20 10 20 6 0 10 6 10 13 0 19 21 37 42 37 10 0 18 -6 18 -13z m1172 -14 c5 -2
13 -13 19 -24 10 -20 9 -20 -44 -14 -50 6 -56 5 -62 -14 -15 -48 25 -83 62
-55 17 12 16 13 -9 14 -18 0 -28 5 -28 15 0 11 12 15 45 15 41 0 45 -2 45 -25
0 -60 -96 -90 -140 -43 -20 22 -26 70 -14 103 13 34 87 50 126 28z m-1517 -13
c25 -27 13 -68 -23 -76 -48 -10 -52 -13 -52 -39 0 -18 -5 -25 -20 -25 -18 0
-20 7 -20 80 l0 80 48 0 c36 0 54 -5 67 -20z m589 4 c33 -32 11 -81 -39 -86
-24 -2 -31 -8 -33 -30 -2 -20 -9 -28 -23 -28 -17 0 -19 8 -19 80 l0 80 49 0
c32 0 55 -6 65 -16z m1496 1 c0 -8 7 -15 15 -15 8 0 15 -9 15 -20 0 -11 -7
-20 -15 -20 -9 0 -15 -9 -15 -25 0 -14 7 -28 15 -31 24 -9 18 -34 -8 -34 -31
0 -47 18 -47 52 0 16 -6 38 -12 49 -10 17 -10 23 0 26 6 3 12 11 12 19 0 8 9
14 20 14 11 0 20 -7 20 -15z m-1970 -36 c0 -10 -9 -21 -20 -24 -16 -5 -20 -15
-20 -46 0 -35 -3 -39 -25 -39 -24 0 -25 2 -25 65 l0 64 45 -1 c36 0 45 -4 45
-19z m122 4 c18 -16 24 -68 10 -89 -16 -24 -50 -34 -79 -23 -15 5 -31 16 -35
22 -13 21 -9 70 9 89 20 22 70 23 95 1z m468 -4 c0 -10 -9 -21 -20 -24 -16 -5
-20 -15 -20 -46 0 -32 -3 -39 -20 -39 -18 0 -20 7 -20 64 l0 65 40 -2 c31 -1
40 -5 40 -18z m150 -45 c0 -63 0 -64 -27 -65 -16 0 -41 0 -57 0 -36 -1 -56 23
-56 65 0 47 23 64 86 64 l54 -1 0 -63z m145 43 c8 -12 15 -41 15 -64 0 -39 -2
-43 -25 -43 -23 0 -25 4 -25 45 0 38 -3 45 -20 45 -17 0 -20 -7 -20 -45 0 -41
-2 -45 -25 -45 -24 0 -25 2 -25 64 l0 65 55 0 c45 0 58 -4 70 -22z m165 -43
c0 -64 0 -64 -27 -63 -16 1 -36 -2 -45 -6 -23 -9 -68 36 -68 70 0 41 31 64 89
63 l51 0 0 -64z m75 22 c12 -43 19 -40 30 12 5 26 11 32 32 32 16 0 23 -5 21
-12 -3 -7 -13 -37 -23 -65 -17 -46 -22 -53 -46 -53 -23 0 -29 7 -48 59 -26 72
-26 73 1 69 16 -2 25 -14 33 -42z m455 -22 c0 -64 0 -64 -27 -63 -16 1 -36 -2
-45 -6 -12 -5 -26 2 -44 20 -21 21 -25 32 -20 58 8 43 29 56 87 55 l49 0 0
-64z m150 46 c5 -10 10 -39 10 -64 0 -39 -3 -46 -19 -46 -16 0 -20 8 -23 43
-2 34 -7 42 -23 42 -16 0 -21 -8 -23 -42 -3 -35 -7 -43 -23 -43 -17 0 -19 7
-19 64 l0 64 55 1 c44 0 57 -3 65 -19z m170 -46 l0 -64 -37 -2 c-82 -3 -103
10 -103 66 0 47 24 65 86 65 l54 0 0 -65z m200 44 c0 -9 -9 -22 -20 -28 -14
-8 -20 -21 -20 -45 0 -28 -4 -35 -20 -35 -18 0 -20 7 -20 64 l0 65 40 -2 c31
-1 40 -5 40 -19z m150 -44 c0 -64 0 -64 -27 -63 -16 1 -35 -1 -44 -5 -9 -4
-26 2 -42 14 -31 24 -35 63 -12 97 13 18 25 22 70 22 l55 -1 0 -64z m-5393 34
c-3 -8 -6 -5 -6 6 -1 11 2 17 5 13 3 -3 4 -12 1 -19z m3430 -74 c8 -22 -18
-37 -36 -20 -7 8 -10 19 -7 25 10 16 36 13 43 -5z m-2265 -235 c9 -5 25 -9 36
-9 11 0 25 -7 32 -15 11 -13 4 -15 -51 -16 -35 -1 -55 -4 -44 -6 39 -10 62
-43 30 -43 -18 0 -20 -30 -2 -31 6 -1 28 0 47 1 30 1 38 -3 49 -27 7 -15 17
-35 20 -42 10 -19 -16 -71 -35 -71 -8 0 -14 -6 -14 -13 0 -8 -9 -22 -19 -31
-11 -10 -23 -31 -26 -47 -7 -32 -35 -45 -65 -29 -25 14 -28 -5 -3 -32 15 -17
15 -18 0 -18 -18 0 -33 42 -22 60 4 6 -2 20 -13 30 -17 16 -21 17 -26 5 -9
-24 -26 -17 -26 10 0 14 8 33 18 43 18 18 17 19 -22 38 -22 10 -44 18 -49 16
-5 -1 -15 3 -23 9 -8 7 -17 9 -21 6 -9 -10 -83 35 -83 50 0 8 13 13 39 13 21
0 44 6 51 14 10 12 8 15 -12 14 -48 -3 -79 2 -73 12 3 6 16 10 28 10 18 0 19
2 7 11 -11 8 -9 9 10 3 14 -4 27 -11 28 -15 7 -18 32 -9 32 11 0 14 7 20 23
20 12 0 31 7 41 15 19 14 18 15 -15 15 -19 0 -43 7 -53 15 -20 15 -20 15 0 16
10 0 35 6 54 12 37 13 123 11 152 -4z m1863 -19 c16 -17 16 -20 2 -20 -9 0
-19 5 -22 10 -9 14 -48 13 -63 -2 -7 -7 -12 -24 -12 -38 0 -14 5 -31 12 -38
15 -15 54 -16 63 -2 3 6 14 10 23 10 27 -1 -25 -40 -53 -40 -59 0 -90 76 -50
120 24 26 76 26 100 0z m115 10 c0 -5 -13 -10 -30 -10 -23 0 -30 -4 -30 -20 0
-15 7 -20 25 -20 14 0 25 -4 25 -10 0 -5 -11 -10 -25 -10 -18 0 -25 -5 -25
-20 0 -16 7 -20 30 -20 17 0 30 -4 30 -10 0 -5 -18 -10 -40 -10 l-40 0 0 70 0
70 40 0 c22 0 40 -4 40 -10z m130 -10 c61 -61 -23 -158 -88 -102 -32 26 -37
63 -12 95 26 33 71 36 100 7z m222 -5 c14 -32 -4 -55 -43 -55 -26 0 -29 -4
-29 -30 0 -16 -4 -30 -10 -30 -6 0 -10 30 -10 70 l0 70 40 0 c33 0 42 -4 52
-25z m48 -5 c0 -27 3 -30 30 -30 27 0 30 3 30 30 0 17 5 30 10 30 6 0 10 -30
10 -70 0 -40 -4 -70 -10 -70 -5 0 -10 14 -10 30 0 27 -3 30 -30 30 -27 0 -30
-3 -30 -30 0 -16 -4 -30 -10 -30 -6 0 -10 30 -10 70 0 40 4 70 10 70 6 0 10
-13 10 -30z m198 -40 c21 -60 22 -95 1 -57 -12 21 -65 23 -73 2 -3 -8 -10 -15
-15 -15 -8 0 7 57 34 123 12 30 29 13 53 -53z m116 64 c18 -7 22 -54 5 -71 -8
-8 -8 -17 0 -31 14 -25 14 -32 1 -32 -5 0 -16 14 -25 30 -9 17 -20 30 -25 30
-6 0 -10 -13 -10 -30 0 -16 -4 -30 -10 -30 -6 0 -10 30 -10 70 l0 70 29 0 c16
0 36 -3 45 -6z m90 -46 l23 -53 27 53 c14 28 31 52 36 52 6 0 10 -31 10 -70 0
-40 -4 -70 -10 -70 -5 0 -10 21 -11 48 l-1 47 -20 -47 c-11 -27 -24 -48 -27
-48 -4 0 -17 19 -28 43 l-22 42 0 -42 c-1 -24 -5 -43 -11 -43 -6 0 -10 30 -10
70 0 41 4 70 10 70 6 0 21 -24 34 -52z m209 -15 c25 -69 26 -93 3 -60 -17 22
-62 22 -75 0 -5 -10 -12 -15 -16 -11 -9 9 38 138 51 138 7 0 23 -30 37 -67z
m152 51 c20 -21 13 -29 -13 -15 -49 26 -91 -3 -78 -55 7 -27 51 -43 69 -25 6
6 18 11 26 11 11 0 10 -4 -4 -20 -38 -42 -115 -7 -115 52 0 56 76 91 115 52z
m110 -1 c27 -66 42 -123 34 -123 -5 0 -12 7 -15 15 -8 21 -61 19 -73 -2 -5
-10 -13 -15 -16 -11 -6 6 26 105 41 130 8 13 21 9 29 -9z m153 1 c16 -11 22
-25 22 -54 0 -46 -26 -70 -77 -70 l-33 0 0 70 0 70 33 0 c18 0 43 -7 55 -16z
m-1238 -107 c0 -15 -29 -57 -30 -42 0 6 3 20 6 33 7 24 24 31 24 9z m-1924
-114 c-11 -11 -19 6 -11 24 8 17 8 17 12 0 3 -10 2 -21 -1 -24z m292 -198 c1
-1 -20 -7 -48 -12 -45 -9 -50 -8 -50 8 0 16 6 18 48 12 26 -3 48 -7 50 -8z
m-632 -44 c-13 -20 -26 -11 -26 16 0 25 1 26 16 11 9 -9 13 -21 10 -27z m-2
-38 c-5 -5 -12 -12 -16 -18 -4 -6 -8 -2 -8 8 0 9 7 17 17 17 9 0 12 -3 7 -7z"/>
<path d="M4156 5985 c-10 -8 -22 -16 -26 -17 -4 -2 -10 -13 -14 -25 -8 -26 31
-69 67 -75 20 -4 20 -5 -9 -23 -25 -15 -72 -75 -92 -117 -5 -11 67 -77 108
-98 45 -23 97 -26 133 -7 21 11 24 16 14 26 -17 17 8 31 54 31 61 0 79 48 29
75 -14 7 -46 22 -73 32 -31 12 -46 23 -44 33 2 12 17 14 76 12 41 -1 79 2 86
8 17 14 63 -10 70 -37 3 -13 16 -25 30 -29 14 -3 25 -10 25 -15 0 -5 5 -9 10
-9 6 0 10 7 10 15 0 8 7 15 15 15 8 0 15 7 15 15 0 8 -9 15 -20 15 -12 0 -25
10 -31 24 -15 33 -144 104 -192 105 -9 1 -39 12 -66 25 -65 31 -149 41 -175
21z"/>
<path d="M4016 5845 c-3 -9 0 -15 9 -15 7 0 16 -8 18 -17 4 -17 5 -17 6 0 1
13 10 17 41 17 29 0 40 4 40 15 0 11 -13 15 -54 15 -39 0 -55 -4 -60 -15z"/>
<path d="M4019 5758 c-4 -47 23 -104 43 -92 13 8 9 67 -6 87 -15 20 -36 23
-37 5z"/>
<path d="M4500 5675 c0 -9 9 -15 25 -15 18 0 23 4 19 15 -4 8 -15 15 -25 15
-10 0 -19 -7 -19 -15z"/>
<path d="M4190 5446 c0 -8 6 -21 13 -28 6 -7 25 -40 41 -73 29 -61 135 -213
149 -214 22 -2 0 79 -55 197 -21 46 -83 112 -105 112 -7 0 -13 5 -13 10 0 6
-7 10 -15 10 -8 0 -15 -6 -15 -14z"/>
<path d="M4095 5310 c-8 -12 20 -24 35 -15 6 3 8 11 5 16 -8 12 -32 12 -40 -1z"/>
<path d="M4926 5636 c4 -22 -2 -73 -16 -136 -20 -93 -41 -145 -92 -227 -19
-31 -19 -33 -1 -33 18 0 51 59 74 133 12 37 27 74 41 101 14 26 38 122 38 149
0 26 -17 47 -37 47 -10 0 -12 -9 -7 -34z"/>
<path d="M5930 5431 c0 -15 6 -21 21 -21 25 0 22 33 -4 38 -12 2 -17 -3 -17
-17z"/>
<path d="M6520 5430 c0 -13 7 -20 20 -20 13 0 20 7 20 20 0 13 -7 20 -20 20
-13 0 -20 -7 -20 -20z"/>
<path d="M6174 5396 c-9 -24 4 -48 23 -44 12 2 18 12 18 28 0 29 -32 41 -41
16z"/>
<path d="M6763 5394 c-7 -19 20 -49 36 -40 6 4 11 18 11 32 0 17 -5 24 -20 24
-11 0 -23 -7 -27 -16z"/>
<path d="M7080 5386 c0 -32 18 -43 37 -23 20 20 10 47 -17 47 -15 0 -20 -7
-20 -24z"/>
<path d="M7610 5386 c0 -32 18 -43 37 -23 20 20 10 47 -17 47 -15 0 -20 -7
-20 -24z"/>
<path d="M7923 5394 c-7 -19 20 -49 36 -40 6 4 11 18 11 32 0 17 -5 24 -20 24
-11 0 -23 -7 -27 -16z"/>
<path d="M8277 5396 c-3 -8 1 -22 8 -33 13 -17 15 -17 31 -1 9 9 14 24 11 32
-8 20 -43 21 -50 2z"/>
<path d="M4015 5010 c3 -5 12 -7 20 -3 21 7 19 13 -6 13 -11 0 -18 -4 -14 -10z"/>
<path d="M4078 5013 c7 -3 16 -2 19 1 4 3 -2 6 -13 5 -11 0 -14 -3 -6 -6z"/>
<path d="M6172 5078 c-7 -7 -12 -24 -12 -38 0 -31 17 -50 45 -50 28 0 45 19
45 50 0 31 -17 50 -45 50 -12 0 -26 -5 -33 -12z"/>
<path d="M6400 5070 c0 -14 7 -20 23 -20 13 0 26 3 30 6 12 12 -6 34 -29 34
-17 0 -24 -6 -24 -20z"/>
<path d="M6672 5050 c-7 -19 -6 -26 5 -28 21 -5 25 2 14 29 l-9 24 -10 -25z"/>
<path d="M6780 5065 c0 -26 7 -29 34 -19 27 10 20 44 -9 44 -20 0 -25 -5 -25
-25z"/>
<path d="M7090 5061 c0 -5 -3 -16 -6 -25 -4 -11 0 -16 14 -16 15 0 19 5 15 20
-6 22 -23 38 -23 21z"/>
<path d="M7370 5061 c0 -5 -3 -16 -6 -25 -4 -11 0 -16 14 -16 15 0 19 5 15 20
-6 22 -23 38 -23 21z"/>
<path d="M7480 5040 c0 -46 2 -50 23 -50 30 0 47 18 47 50 0 32 -17 50 -47 50
-21 0 -23 -4 -23 -50z"/>
<path d="M3275 4045 c-22 -8 -47 -15 -55 -15 -37 0 -39 -22 -7 -64 64 -82 157
-158 157 -128 0 4 -25 34 -55 67 -57 62 -72 95 -36 75 27 -14 31 -13 24 6 -3
10 1 17 13 20 11 3 27 16 37 30 18 24 18 24 -10 24 -15 -1 -46 -7 -68 -15z"/>
<path d="M4474 4049 c-27 -8 -46 -27 -114 -113 -8 -11 -26 -29 -39 -40 -86
-76 -111 -100 -111 -108 0 -19 69 36 195 154 69 65 106 79 135 53 11 -10 20
-22 20 -27 0 -11 41 -47 53 -48 4 0 26 -13 49 -30 22 -16 45 -30 49 -30 4 0
31 -14 60 -30 28 -17 54 -28 57 -25 3 3 0 5 -6 5 -18 0 -72 80 -72 107 0 24
-22 65 -50 93 -45 44 -147 62 -226 39z"/>
<path d="M2835 3982 c-38 -19 -54 -41 -55 -69 0 -26 18 -31 26 -8 4 8 10 15
16 15 5 0 16 7 24 15 15 15 23 16 132 19 59 2 107 20 97 37 -10 16 -206 9
-240 -9z"/>
<path d="M2646 3963 c-11 -11 -6 -23 9 -23 8 0 15 4 15 9 0 13 -16 22 -24 14z"/>
<path d="M3386 3920 c20 -34 44 -47 44 -24 0 18 -18 37 -43 47 -17 6 -17 5 -1
-23z"/>
<path d="M3740 3860 c0 -5 5 -10 10 -10 6 0 10 5 10 10 0 6 -4 10 -10 10 -5 0
-10 -4 -10 -10z"/>
<path d="M3509 3822 c5 -10 26 -27 45 -37 20 -11 36 -23 36 -27 0 -5 7 -8 15
-8 9 0 18 -7 21 -15 4 -8 11 -15 17 -15 6 0 19 -8 29 -17 14 -12 17 -13 13 -2
-3 8 -40 38 -81 68 -41 29 -74 57 -74 62 0 5 -7 9 -15 9 -12 0 -13 -4 -6 -18z"/>
<path d="M3700 3684 c0 -5 9 -20 20 -34 23 -30 25 -58 6 -85 -34 -49 -54 -94
-44 -97 7 -3 5 -9 -4 -19 -25 -24 -30 -55 -13 -69 12 -10 15 -9 15 6 0 11 7
28 15 38 8 11 15 30 15 42 0 33 36 107 59 122 20 12 29 42 13 42 -5 0 -17 8
-28 18 -37 33 -54 44 -54 36z"/>
<path d="M3641 3258 c-12 -59 -9 -81 8 -62 12 13 23 111 13 118 -4 3 -14 -22
-21 -56z"/>
<path d="M4772 3179 c0 -18 -4 -49 -7 -69 -5 -29 -3 -39 10 -44 23 -9 35 1 35
30 0 13 5 24 10 24 6 0 10 -4 10 -9 0 -5 6 -16 13 -23 18 -18 77 -116 77 -127
0 -15 41 -24 53 -12 8 8 8 11 0 11 -6 0 -33 35 -58 77 -43 71 -45 78 -30 89
21 16 13 64 -11 64 -10 0 -14 -6 -10 -15 9 -25 -4 -45 -30 -45 -21 0 -24 4
-24 40 0 32 -4 40 -18 40 -14 0 -19 -8 -20 -31z"/>
<path d="M3629 3113 c-3 -21 -6 -30 -17 -56 -8 -19 -12 -92 -12 -214 0 -197 7
-237 14 -87 3 49 7 105 10 124 8 50 16 240 10 240 -2 0 -5 -3 -5 -7z"/>
<path d="M1644 3062 c-38 -24 -37 -538 1 -624 13 -29 14 4 15 300 0 182 -1
332 -2 332 -2 0 -8 -4 -14 -8z"/>
<path d="M4838 2963 c7 -3 16 -2 19 1 4 3 -2 6 -13 5 -11 0 -14 -3 -6 -6z"/>
<path d="M4367 2953 c-11 -10 -8 -83 3 -83 6 0 10 7 10 15 0 10 11 15 35 15
28 0 35 4 35 20 0 27 -64 53 -83 33z m51 -31 c2 -7 -3 -12 -12 -12 -9 0 -16 7
-16 16 0 17 22 14 28 -4z"/>
<path d="M4470 2916 c0 -19 -3 -41 -6 -50 -10 -26 12 -18 24 9 19 40 48 31 43
-12 -1 -7 5 -13 14 -13 11 0 15 11 15 48 -1 41 -2 45 -14 30 -18 -24 -47 -23
-53 2 -8 32 -23 23 -23 -14z"/>
<path d="M4617 2923 c-13 -12 -7 -33 8 -33 9 0 15 -9 15 -24 0 -13 7 -27 16
-30 11 -4 15 -2 12 6 -3 7 -11 30 -19 51 -13 37 -20 43 -32 30z"/>
<path d="M4696 2908 c-15 -58 2 -122 19 -69 7 22 35 18 35 -5 0 -8 6 -14 14
-14 10 0 13 14 12 53 l-1 52 -36 3 c-31 3 -37 -1 -43 -20z m62 -15 c2 -8 -5
-13 -17 -13 -12 0 -21 6 -21 16 0 18 31 15 38 -3z"/>
<path d="M4810 2893 c0 -16 -3 -38 -6 -50 -4 -13 -2 -23 4 -23 5 0 13 10 17
23 6 19 8 19 12 5 5 -19 33 -25 33 -8 0 6 8 10 19 10 20 0 35 36 20 46 -6 3
-18 -4 -28 -15 -19 -22 -31 -17 -44 22 -10 27 -27 20 -27 -10z"/>
<path d="M4590 2875 c-20 -24 -7 -35 17 -15 18 14 19 19 9 23 -8 3 -20 -1 -26
-8z"/>
<path d="M4955 2855 c-9 -20 -14 -41 -11 -48 3 -9 5 -9 5 1 1 18 49 14 60 -5
5 -10 13 -14 17 -10 4 4 2 13 -4 19 -7 7 -12 21 -12 33 0 20 -17 45 -31 45 -4
0 -14 -16 -24 -35z"/>
<path d="M5052 2868 c-35 -35 11 -97 63 -84 14 4 23 11 20 16 -4 7 -13 7 -24
0 -28 -15 -56 10 -47 43 5 20 13 27 30 27 14 0 26 -5 28 -12 3 -7 7 -6 11 5 5
14 0 17 -31 17 -21 0 -43 -5 -50 -12z"/>
<path d="M5197 2873 c-30 -51 -47 -86 -42 -91 10 -11 43 32 50 66 6 30 2 42
-8 25z"/>
<path d="M5217 2830 c-3 -11 -1 -23 4 -26 5 -3 9 6 9 20 0 31 -6 34 -13 6z"/>
<path d="M5278 2843 c6 -2 18 -2 25 0 6 3 1 5 -13 5 -14 0 -19 -2 -12 -5z"/>
<path d="M6035 2826 c-9 -11 -27 -41 -64 -111 -9 -16 -18 -32 -21 -35 -13 -13
-54 -100 -49 -104 12 -12 152 226 147 249 -2 10 -5 10 -13 1z"/>
<path d="M5262 2780 c0 -14 2 -19 5 -12 2 6 2 18 0 25 -3 6 -5 1 -5 -13z"/>
<path d="M5320 2755 c-8 -9 -8 -15 -2 -15 12 0 26 19 19 26 -2 2 -10 -2 -17
-11z"/>
<path d="M1515 2705 c4 -22 11 -45 15 -50 19 -23 49 -175 35 -175 -4 0 -24 10
-43 22 l-35 22 41 -57 c24 -31 47 -68 52 -82 9 -23 8 -25 -9 -15 -30 15 -33
13 -26 -21 7 -30 6 -30 -17 -18 -12 6 -39 25 -59 40 -20 16 -40 29 -44 29 -4
0 -13 7 -20 16 -6 9 -18 15 -25 12 -9 -3 0 -16 26 -39 21 -19 70 -64 108 -101
l69 -67 -13 -58 c-23 -101 -21 -167 10 -246 15 -39 32 -73 37 -74 27 -9 48
338 24 400 -16 42 -14 106 4 113 8 4 15 14 14 23 0 10 -2 11 -6 4 -9 -23 -21
-14 -26 20 -12 70 -30 143 -38 159 -5 10 -9 25 -9 33 0 19 -37 102 -57 130
-14 18 -14 17 -8 -20z"/>
<path d="M5928 2403 c-10 -2 -18 -11 -18 -19 0 -8 -6 -14 -13 -14 -30 0 -45
-35 -52 -120 l-6 -85 20 35 c11 19 20 47 21 61 0 26 53 109 69 109 5 0 11 9
14 20 5 20 -1 22 -35 13z"/>
<path d="M726 2336 c9 -24 31 -60 50 -80 19 -19 34 -37 34 -40 0 -5 86 -92
113 -115 32 -26 17 -2 -30 46 -62 63 -135 160 -152 201 -20 48 -32 39 -15 -12z"/>
<path d="M4255 2304 c-36 -37 22 -269 98 -388 6 -11 15 -25 19 -30 4 -6 22
-28 41 -50 27 -32 37 -37 57 -31 23 7 23 7 2 19 -32 17 -103 122 -109 162 -3
20 -12 38 -19 41 -8 3 -14 11 -14 19 0 8 -4 14 -10 14 -5 0 -12 17 -16 38 -4
20 -8 45 -10 55 -1 9 -6 21 -9 27 -3 5 -6 39 -6 75 -1 36 -2 65 -4 65 -2 0
-11 -7 -20 -16z"/>
<path d="M2689 2183 c-9 -10 -19 -35 -22 -55 -5 -33 -3 -38 14 -38 10 0 19 7
19 15 0 8 5 24 12 34 8 13 9 26 2 41 -9 21 -10 21 -25 3z"/>
<path d="M1362 2163 c9 -10 13 -24 11 -30 -3 -7 3 -13 12 -13 10 0 14 5 11 13
-3 6 -9 20 -12 30 -4 9 -13 17 -22 17 -14 0 -14 -2 0 -17z"/>
<path d="M5875 2000 c-4 -16 -11 -30 -16 -30 -5 0 -9 -8 -9 -17 0 -10 -7 -31
-15 -47 -8 -15 -15 -40 -15 -55 l1 -26 14 25 c8 14 14 33 15 43 0 10 6 28 14
40 14 22 31 97 22 97 -2 0 -7 -13 -11 -30z"/>
<path d="M1490 1986 c0 -4 7 -14 15 -22 8 -9 15 -11 15 -6 0 5 -7 15 -15 22
-8 7 -15 9 -15 6z"/>
<path d="M1410 1956 c0 -8 6 -16 13 -19 8 -3 6 -10 -8 -21 -15 -12 -16 -16 -5
-16 8 -1 0 -9 -19 -19 -19 -10 -43 -16 -53 -13 -13 3 -17 0 -13 -9 5 -14 56
-36 107 -46 14 -3 28 -13 31 -23 4 -17 -1 -19 -52 -17 -53 2 -56 1 -54 -20 3
-27 -20 -31 -43 -8 -9 8 -23 15 -31 15 -12 0 -9 -7 11 -25 14 -13 26 -27 26
-31 0 -4 8 -13 18 -20 16 -13 16 -13 0 -14 -10 0 -18 5 -18 10 0 15 -26 12
-40 -5 -11 -13 -7 -15 23 -15 19 0 49 -6 66 -13 l31 -13 -43 -18 c-23 -9 -50
-21 -59 -27 -10 -5 -26 -9 -37 -9 -10 0 -21 -7 -25 -15 -4 -11 -13 -14 -33 -9
-27 6 -27 6 -8 -10 19 -14 7 -16 -150 -15 -96 0 -196 -6 -230 -12 -33 -7 -89
-13 -125 -13 -63 0 -187 25 -222 44 -38 21 -59 3 -101 -83 -27 -56 -37 -106
-58 -302 -14 -123 -8 -340 9 -357 7 -7 12 -19 12 -28 0 -16 57 -140 70 -150 3
-3 20 -24 38 -46 45 -59 118 -92 210 -96 40 -2 76 -8 80 -14 7 -9 50 -23 132
-44 19 -5 53 -13 75 -19 22 -6 82 -11 133 -11 50 0 92 -3 92 -6 0 -4 -29 -62
-65 -129 -36 -68 -65 -133 -65 -146 0 -41 36 -87 77 -99 25 -7 142 -10 343 -8
l305 3 -2 30 c-1 17 -5 65 -9 107 -6 67 -5 78 10 84 9 3 16 14 16 23 1 9 10
27 21 41 19 22 22 23 30 8 7 -12 23 -17 57 -17 26 0 54 0 62 -1 38 -1 77 13
85 32 6 11 13 20 18 19 4 0 24 8 44 19 21 11 46 20 55 20 10 0 29 10 44 22 14
13 33 23 42 23 11 0 16 7 14 18 -2 12 4 17 23 17 14 0 28 7 31 15 4 10 20 15
45 15 28 0 39 -4 39 -15 0 -8 5 -15 10 -15 12 0 50 37 50 49 0 16 68 22 111
11 37 -10 40 -14 34 -37 -6 -26 -6 -26 42 -20 28 4 42 3 35 -2 -11 -7 -11 -9
1 -14 14 -5 67 33 67 49 0 4 -20 4 -45 1 -27 -4 -45 -3 -45 3 0 6 -9 10 -21
10 -19 0 -19 1 -5 16 9 9 32 20 51 25 29 8 35 15 35 37 0 32 -64 98 -105 108
-17 4 -31 18 -40 41 -18 42 -14 49 30 67 32 14 34 17 32 58 -2 40 -4 43 -30
43 -33 1 -47 18 -47 62 0 23 -6 33 -20 38 -11 4 -21 16 -22 28 -4 68 -6 84
-13 105 -6 17 -3 22 9 22 9 0 16 8 16 18 0 11 -3 13 -8 5 -4 -6 -23 -14 -42
-18 -28 -5 -39 -2 -53 13 -15 16 -27 19 -60 15 -23 -3 -43 -7 -45 -8 -1 -1 4
-22 12 -46 21 -60 20 -74 -9 -87 -14 -6 -25 -16 -25 -22 0 -5 -12 -10 -27 -10
-19 0 -24 3 -15 8 7 5 10 16 6 25 -3 9 -2 17 4 17 14 0 3 36 -14 51 -16 13
-19 65 -4 74 6 4 10 12 9 18 -3 23 14 77 27 88 8 6 14 16 14 22 0 17 51 115
66 128 8 6 14 17 14 23 0 6 7 23 14 38 8 15 11 30 6 33 -10 6 10 65 22 65 4 0
8 7 8 15 0 8 -4 15 -10 15 -5 0 -10 -4 -10 -10 0 -5 -6 -10 -14 -10 -8 0 -16
-6 -19 -14 -3 -8 -16 -16 -29 -18 -13 -2 -24 -11 -26 -23 -2 -11 -9 -25 -15
-30 -18 -15 -37 -52 -38 -72 0 -11 -3 -13 -6 -5 -8 19 -23 14 -23 -8 0 -11 -7
-20 -15 -20 -8 0 -15 5 -15 11 0 6 -6 9 -14 6 -8 -3 -16 -1 -18 5 -7 19 -136
13 -159 -8 -22 -19 -75 -26 -101 -12 -11 5 -18 5 -18 -1 0 -5 6 -12 13 -14 6
-3 2 -6 -10 -6 -15 -1 -23 5 -23 15 0 13 -7 15 -37 11 -85 -13 -133 -13 -133
0 0 23 -33 33 -52 16 -21 -19 -20 -27 -20 162 l0 120 -37 32 c-31 29 -63 40
-95 34 -5 -1 -4 5 4 13 7 9 23 16 36 16 13 0 24 5 24 11 0 14 -67 79 -81 79
-5 0 -9 5 -9 11 0 12 -29 38 -42 39 -5 0 -8 -6 -8 -14z m-1014 -532 c-3 -9 -6
-18 -6 -20 0 -3 -4 -3 -10 1 -11 7 -2 35 12 35 6 0 7 -7 4 -16z m1244 -123 c0
-10 -13 -25 -56 -62 -53 -45 -82 -122 -94 -244 -6 -60 -15 -114 -21 -119 -6
-6 -9 -4 -9 7 0 10 -7 20 -16 24 -24 9 -12 109 21 167 14 25 25 52 25 61 0 35
109 175 136 175 8 0 14 -4 14 -9z m-933 -43 c-3 -8 -6 -5 -6 6 -1 11 2 17 5
13 3 -3 4 -12 1 -19z m-46 -129 c-25 -24 -27 -13 -4 21 11 15 18 19 21 11 2
-7 -5 -21 -17 -32z m52 -13 c-3 -16 -10 -23 -19 -19 -17 6 -18 20 -1 37 17 19
25 11 20 -18z m1477 -146 c0 -13 -5 -18 -14 -14 -8 3 -12 12 -9 20 8 21 23 17
23 -6z m12 -192 c-9 -9 -12 -7 -12 12 0 19 3 21 12 12 9 -9 9 -15 0 -24z
m-545 -249 c15 -8 35 -20 43 -28 12 -12 11 -13 -10 -6 -75 23 -91 35 -160 122
-6 7 -10 18 -10 24 0 7 25 -13 55 -43 30 -30 67 -61 82 -69z"/>
<path d="M3658 1923 c-25 -4 -39 -21 -20 -25 50 -10 89 2 76 24 -5 8 -8 8 -56
1z"/>
<path d="M3692 1824 c-7 -8 -8 -14 -3 -14 10 0 25 19 20 25 -2 1 -10 -3 -17
-11z"/>
<path d="M3856 1745 c4 -9 0 -15 -10 -15 -9 0 -16 5 -16 12 0 6 -2 9 -5 6 -4
-3 -3 -18 1 -33 5 -22 11 -26 30 -21 24 6 33 -7 13 -20 -8 -4 -7 -9 2 -15 8
-4 14 -13 14 -19 0 -6 6 -15 14 -19 11 -7 9 -11 -9 -21 -12 -6 -24 -9 -27 -7
-2 3 -13 -2 -23 -10 -18 -16 -16 -52 4 -65 17 -11 -2 -22 -39 -21 -19 1 -35
-4 -35 -9 0 -6 7 -7 16 -4 11 4 14 1 12 -12 -2 -11 -14 -18 -35 -20 -23 -2
-30 -7 -26 -18 3 -8 13 -14 22 -15 14 -1 -10 -9 -76 -26 -14 -3 -23 -1 -23 6
0 6 6 11 13 11 9 0 8 3 -2 9 -7 5 -28 5 -47 1 -26 -6 -34 -5 -34 6 0 10 -14
14 -47 15 -27 1 -38 4 -25 6 46 9 19 32 -30 25 -22 -3 -28 -10 -28 -28 0 -17
-4 -22 -15 -18 -8 4 -15 14 -15 23 -1 14 -2 14 -11 -2 -6 -9 -14 -15 -18 -12
-5 2 -34 7 -65 9 l-57 5 -19 -45 -19 -44 -76 0 c-42 0 -85 5 -96 11 -11 5 -68
13 -127 16 -99 5 -105 4 -86 -11 21 -15 32 -15 82 0 13 4 22 2 22 -5 0 -6 19
-11 48 -11 26 -1 65 -7 87 -15 22 -8 50 -15 62 -15 13 0 37 -13 55 -29 32 -28
33 -32 31 -97 -2 -60 -6 -71 -33 -99 -30 -31 -39 -55 -20 -55 16 0 29 -73 21
-117 -8 -42 -30 -73 -51 -73 -7 0 -9 7 -6 15 9 24 -20 29 -63 12 -24 -10 -53
-14 -75 -10 -42 7 -48 -9 -14 -38 25 -23 63 -24 102 -4 15 8 33 15 38 15 17 0
62 -54 49 -58 -17 -6 -13 -29 5 -36 9 -4 14 -9 10 -13 -3 -3 1 -14 10 -24 11
-12 12 -19 4 -24 -8 -5 -8 -10 0 -20 8 -9 8 -15 0 -20 -16 -10 -12 -38 5 -32
19 8 31 -13 14 -24 -10 -6 -4 -9 19 -9 23 0 32 -5 32 -16 0 -10 6 -14 15 -10
11 4 15 -1 15 -19 0 -16 6 -25 15 -25 10 0 15 -10 15 -30 0 -35 2 -36 35 -14
21 14 30 14 55 4 38 -16 34 -31 -11 -47 -28 -10 -30 -12 -10 -12 13 -1 39 9
58 20 27 17 44 20 79 15 35 -4 44 -3 44 9 0 17 16 20 25 5 3 -5 2 -10 -4 -10
-6 0 -8 -7 -5 -15 5 -12 8 -13 20 0 11 11 21 12 46 3 18 -6 27 -13 20 -16 -21
-7 -13 -22 13 -22 14 0 25 5 25 10 0 6 -6 10 -12 10 -10 0 -10 2 0 9 7 4 37 4
65 -1 36 -7 53 -6 55 1 2 6 8 8 14 5 6 -4 14 0 19 7 7 11 9 10 9 -3 0 -22 16
-24 24 -3 8 22 73 20 79 -3 4 -16 5 -16 6 1 1 12 10 17 31 17 19 0 33 6 37 16
4 12 19 14 65 12 48 -2 61 1 69 15 12 21 39 23 39 2 0 -18 19 -20 26 -2 6 18
127 11 177 -10 20 -9 40 -14 43 -10 9 9 42 -30 46 -55 2 -19 10 -24 39 -26 27
-2 38 -8 42 -24 5 -18 11 -19 58 -13 47 7 51 6 45 -10 -6 -16 -1 -17 56 -10
35 4 74 9 88 12 14 2 43 6 64 8 51 6 79 15 88 29 5 7 19 -1 41 -22 18 -17 40
-32 48 -32 8 0 24 -7 35 -15 10 -8 29 -15 41 -15 12 0 25 -4 28 -10 3 -5 19
-10 35 -10 16 0 32 -5 35 -10 4 -6 14 -10 23 -9 32 5 127 -13 149 -27 12 -8
30 -14 39 -14 9 0 26 -10 38 -23 12 -13 29 -26 39 -30 9 -3 17 -11 17 -16 0
-6 17 -10 38 -10 20 1 75 1 121 0 78 -1 86 1 108 25 26 28 21 28 148 -1 39 -8
102 -23 140 -31 112 -26 233 -19 435 24 25 6 103 16 173 22 128 13 129 13 188
56 35 27 61 54 65 69 4 14 5 28 2 30 -6 6 -103 -27 -106 -37 -2 -4 -9 -5 -15
-1 -6 4 -22 8 -35 9 -34 4 -40 13 -19 28 19 15 23 41 6 52 -6 3 -16 0 -21 -7
-7 -10 -8 -6 -5 14 3 18 0 27 -9 27 -15 0 -17 9 -14 52 1 18 -4 28 -12 28 -7
0 -19 13 -26 30 -16 35 -52 42 -52 11 0 -23 -16 -36 -25 -21 -3 5 -13 10 -22
10 -11 0 -14 -6 -9 -25 5 -19 3 -23 -9 -19 -8 4 -15 11 -16 18 0 6 -5 0 -10
-13 l-9 -23 -20 23 c-16 20 -19 21 -20 7 0 -26 -18 -22 -22 5 -4 27 -58 39
-58 13 0 -9 -7 -16 -15 -16 -8 0 -15 4 -15 9 0 5 -9 7 -21 4 -13 -4 -19 -12
-16 -22 7 -28 -57 -68 -92 -58 -12 3 -24 1 -27 -5 -4 -5 -16 0 -29 12 -12 11
-26 20 -31 19 -24 -6 -94 40 -94 61 0 9 -3 10 -13 1 -18 -15 -43 5 -51 42 -8
35 10 36 19 0 5 -20 8 -24 15 -13 5 8 5 21 -1 31 -5 10 -6 26 -2 36 6 17 5 17
-13 1 -10 -9 -32 -20 -48 -24 l-29 -7 6 42 c4 35 2 41 -13 41 -10 0 -20 6 -23
13 -3 9 -8 9 -21 -3 -16 -12 -19 -12 -27 3 -6 9 -17 17 -25 17 -8 0 -19 11
-24 24 -10 26 -60 43 -60 20 0 -8 -8 -14 -17 -14 -16 -1 -16 -2 2 -16 19 -15
18 -16 -12 -9 -28 5 -32 4 -27 -9 7 -18 -14 -49 -27 -40 -16 10 -9 24 8 17 15
-6 16 -5 3 10 -14 15 -16 15 -32 -3 -9 -11 -23 -20 -30 -20 -21 0 -58 -38 -74
-76 -13 -31 -134 -164 -150 -164 -4 0 -15 -6 -23 -13 -29 -23 -120 -49 -148
-42 -15 3 -44 25 -63 47 l-36 40 -36 -21 c-36 -22 -68 -19 -68 5 0 8 3 14 8
14 4 0 16 15 26 34 13 25 23 32 37 29 10 -3 19 -1 19 5 0 6 6 17 13 24 24 25
39 65 35 94 l-4 29 -11 -25 c-8 -16 -12 -19 -12 -9 -1 9 6 30 14 45 20 39 20
85 0 78 -12 -5 -13 -2 -6 17 10 28 48 28 69 1 8 -10 12 -11 12 -3 0 7 7 19 15
28 14 14 14 17 -1 34 -16 18 -16 21 2 57 10 20 22 38 27 40 4 2 7 10 7 17 0
17 30 34 48 28 6 -3 12 -21 12 -42 l0 -37 74 -13 c41 -6 80 -19 86 -26 7 -8
16 -12 21 -9 14 9 10 89 -6 120 -8 16 -15 43 -15 59 0 17 -4 35 -9 40 -5 6
-11 33 -15 60 -3 28 -3 45 0 38 3 -7 11 -10 17 -7 7 2 44 -1 82 -6 39 -6 77
-10 85 -10 33 1 66 -1 90 -5 14 -3 43 -7 65 -11 22 -3 54 -12 72 -20 37 -17
46 -18 38 -4 -3 6 2 13 12 17 10 3 26 13 36 21 9 8 17 12 17 7 0 -4 6 -2 14 4
19 16 82 6 107 -18 12 -11 26 -18 30 -15 5 3 17 0 26 -5 15 -9 12 -10 -15 -11
-42 0 -33 -17 13 -26 19 -3 35 -12 35 -19 0 -9 11 -10 50 -2 38 7 48 13 40 22
-6 7 -21 10 -35 7 -29 -5 -32 7 -7 30 9 10 26 26 36 38 11 11 30 20 43 20 16
0 22 4 17 12 -4 6 3 4 15 -5 13 -8 30 -13 38 -10 11 4 8 8 -9 17 -31 15 -37
56 -9 56 13 0 21 6 21 16 0 14 -9 16 -72 10 -40 -4 -89 -11 -108 -16 -19 -5
-66 -7 -105 -4 -38 3 -101 7 -140 8 -97 3 -99 4 -123 25 -26 22 -27 45 -7 94
18 44 72 107 91 107 16 0 54 35 54 50 0 16 -68 15 -84 -1 -6 -5 -19 -9 -30 -9
-11 0 -44 -24 -74 -52 -43 -43 -54 -50 -62 -38 -7 11 -10 3 -10 -27 0 -23 -5
-65 -11 -93 l-11 -51 -75 2 c-47 1 -79 7 -88 15 -7 8 -19 14 -26 14 -9 0 -8 4
1 15 9 11 9 15 1 15 -6 0 -14 -6 -17 -14 -6 -16 -118 -20 -146 -5 -11 6 -19 5
-24 -2 -9 -16 -87 -5 -169 24 -45 16 -81 23 -102 20 -21 -4 -33 -2 -33 6 0 6
-5 11 -10 11 -6 0 -5 -8 2 -20 7 -11 20 -20 29 -20 25 0 129 -75 129 -93 0 -4
11 -32 24 -60 14 -31 27 -82 31 -125 7 -67 5 -74 -12 -78 -18 -5 -29 -23 -52
-86 -5 -14 -19 -29 -30 -33 -12 -3 -21 -12 -21 -19 0 -7 -9 -23 -20 -36 -11
-13 -20 -28 -20 -34 0 -6 -12 -22 -25 -35 -14 -13 -25 -32 -25 -43 0 -28 -34
-73 -74 -97 -23 -15 -50 -21 -88 -21 -29 0 -78 -7 -108 -15 -30 -8 -115 -20
-188 -26 -108 -10 -137 -10 -157 1 -21 11 -32 11 -65 0 -38 -12 -41 -12 -60
10 -11 13 -20 25 -20 27 0 1 32 3 70 3 58 0 70 -3 70 -16 0 -13 3 -14 14 -5 7
6 37 13 65 15 28 1 59 9 68 18 10 8 26 18 36 21 9 4 17 15 17 26 0 28 -51 37
-84 15 -20 -12 -29 -14 -40 -5 -11 9 -18 6 -35 -15 -12 -15 -24 -24 -28 -21
-3 4 -1 13 6 21 17 20 -22 28 -48 9 -15 -10 -21 -10 -21 -2 0 6 -8 9 -19 6
-14 -3 -29 9 -57 45 -36 48 -38 53 -40 141 -2 49 -8 95 -14 101 -11 11 -14 79
-4 89 4 3 15 2 25 -3 14 -8 21 -6 29 10 6 12 10 29 8 38 -2 11 11 27 39 44 24
15 43 32 43 37 0 5 -15 20 -32 33 -55 38 -69 60 -64 96 5 36 -9 41 -61 21 -38
-15 -103 -12 -122 5 -9 8 -29 18 -44 21 -42 11 -61 71 -27 87 25 11 98 9 106
-3 9 -15 104 -6 114 11 4 7 5 20 3 30 -4 15 -22 19 -126 25 -67 4 -127 11
-134 17 -7 5 -16 7 -21 4 -6 -3 -16 1 -23 10 -10 13 -10 17 0 24 9 5 10 10 2
14 -5 4 -20 1 -31 -6 -19 -11 -24 -10 -41 11 -27 32 -24 55 10 84 16 13 30 31
31 38 5 35 -1 59 -15 59 -8 0 -15 6 -15 14 0 17 -22 26 -61 26 -21 0 -27 -4
-23 -15z m21 -191 c-3 -3 -12 -4 -19 -1 -8 3 -5 6 6 6 11 1 17 -2 13 -5z
m1559 -349 c10 -8 26 -15 34 -15 16 0 40 -43 40 -73 0 -16 -6 -18 -37 -14 -21
2 -30 2 -20 0 9 -2 17 -9 17 -14 0 -5 8 -9 17 -9 42 0 75 -82 39 -96 -16 -6
-96 13 -97 24 -4 59 -11 97 -18 106 -4 6 -11 32 -14 59 -7 51 3 60 39 32z
m-1314 -151 c8 -18 8 -27 -3 -40 -9 -10 -13 -38 -12 -75 0 -33 -3 -59 -7 -59
-5 0 -20 23 -34 51 -21 40 -25 59 -20 92 4 23 11 47 16 53 13 18 48 4 60 -22z
m1168 -224 c0 -11 -7 -20 -15 -20 -8 0 -15 9 -15 20 0 11 7 20 15 20 8 0 15
-9 15 -20z m-90 -109 c0 -11 -9 -23 -21 -26 -26 -9 -30 -5 -22 23 7 28 43 30
43 3z m666 5 c8 -8 14 -22 14 -31 0 -14 -2 -14 -24 1 -15 9 -22 21 -19 30 7
18 11 18 29 0z m112 -167 c-18 -12 -23 8 -6 28 12 15 13 15 16 -2 2 -10 -2
-21 -10 -26z m-818 21 c0 -5 0 -13 0 -17 0 -5 -12 -11 -25 -15 -20 -5 -25 -3
-25 12 0 18 12 28 38 29 6 1 12 -3 12 -9z m880 -39 c0 -5 -7 -14 -15 -21 -13
-10 -15 -9 -15 9 0 12 6 21 15 21 8 0 15 -4 15 -9z m-2477 -58 c-7 -2 -19 -2
-25 0 -7 3 -2 5 12 5 14 0 19 -2 13 -5z m3014 -29 c-3 -3 -12 -4 -19 -1 -8 3
-5 6 6 6 11 1 17 -2 13 -5z"/>
<path d="M4447 1743 c-4 -3 -7 -15 -7 -25 0 -19 1 -19 30 -1 17 9 30 21 30 25
0 10 -44 11 -53 1z"/>
<path d="M4033 1723 c-22 -8 -14 -23 12 -23 14 0 25 4 25 9 0 11 -21 19 -37
14z"/>
<path d="M4490 1709 c0 -5 5 -7 10 -4 6 3 10 8 10 11 0 2 -4 4 -10 4 -5 0 -10
-5 -10 -11z"/>
<path d="M4020 1649 c0 -5 9 -14 19 -21 19 -12 19 -12 0 -36 -22 -28 -25 -62
-6 -62 27 1 47 28 47 63 0 30 -5 38 -30 51 -16 8 -30 10 -30 5z"/>
<path d="M3510 1630 c0 -5 7 -7 15 -4 8 4 15 8 15 10 0 2 -7 4 -15 4 -8 0 -15
-4 -15 -10z"/>
<path d="M3814 1629 c12 -8 25 -8 40 -1 18 9 16 11 -19 11 -33 0 -37 -1 -21
-10z"/>
<path d="M4124 1582 c-19 -12 -27 -52 -11 -52 8 0 18 12 21 26 8 30 5 36 -10
26z"/>
<path d="M3515 1570 c3 -5 10 -10 16 -10 5 0 9 5 9 10 0 6 -7 10 -16 10 -8 0
-12 -4 -9 -10z"/>
<path d="M3740 1549 c0 -5 5 -7 10 -4 6 3 10 8 10 11 0 2 -4 4 -10 4 -5 0 -10
-5 -10 -11z"/>
<path d="M3541 1514 c0 -11 3 -14 6 -6 3 7 2 16 -1 19 -3 4 -6 -2 -5 -13z"/>
<path d="M3390 1502 c-13 -2 -33 -10 -44 -18 -20 -14 -20 -14 6 -14 15 0 30 5
33 10 3 6 31 10 62 10 31 0 54 2 52 4 -8 7 -84 13 -109 8z"/>
<path d="M3600 1460 c0 -5 7 -7 15 -4 8 4 15 8 15 10 0 2 -7 4 -15 4 -8 0 -15
-4 -15 -10z"/>
<path d="M6898 1152 c-31 -6 -20 -17 50 -49 37 -17 79 -43 95 -58 26 -27 34
-24 21 9 -3 9 -11 16 -16 16 -6 0 -28 17 -49 39 -38 38 -67 50 -101 43z"/>
<path d="M6358 1103 c7 -3 16 -2 19 1 4 3 -2 6 -13 5 -11 0 -14 -3 -6 -6z"/>
<path d="M6000 1090 c-13 -9 -13 -10 0 -10 8 0 24 -14 35 -30 14 -21 28 -30
45 -29 16 0 19 3 10 6 -22 9 -40 30 -40 46 0 8 -7 18 -16 21 -19 7 -16 8 -34
-4z"/>
<path d="M6860 1080 c0 -5 5 -10 11 -10 5 0 7 5 4 10 -3 6 -8 10 -11 10 -2 0
-4 -4 -4 -10z"/>
<path d="M2926 1065 c5 -12 23 -15 88 -14 86 1 71 9 -41 23 -45 6 -52 4 -47
-9z"/>
<path d="M6890 1061 c0 -7 7 -19 15 -27 13 -13 15 -13 15 -1 0 8 -7 20 -15 27
-11 9 -15 10 -15 1z"/>
<path d="M6377 1036 c-3 -8 -2 -18 3 -21 13 -8 24 15 12 27 -6 6 -11 4 -15 -6z"/>
<path d="M5832 909 c-13 -5 -28 -7 -33 -3 -15 9 -10 -23 6 -40 8 -8 15 -17 15
-20 0 -16 44 -47 63 -44 26 4 38 48 13 48 -9 0 -16 -6 -16 -12 -1 -8 -6 -6
-14 5 -11 14 -15 15 -20 5 -3 -7 -3 -2 0 12 4 14 12 28 18 32 20 13 -7 27 -32
17z"/>
<path d="M6900 899 c0 -18 40 -48 56 -42 10 3 14 -2 14 -19 0 -34 31 -69 51
-58 22 13 12 73 -16 100 -18 17 -28 20 -41 12 -13 -7 -22 -6 -32 4 -16 17 -32
18 -32 3z"/>
<path d="M5710 869 c0 -5 5 -7 10 -4 6 3 10 8 10 11 0 2 -4 4 -10 4 -5 0 -10
-5 -10 -11z"/>
<path d="M2913 823 c-7 -3 -13 -9 -13 -14 0 -12 37 -12 44 0 7 11 -14 20 -31
14z"/>
<path d="M7096 814 c-16 -11 -17 -17 -8 -26 15 -15 36 2 30 25 -3 14 -5 14
-22 1z"/>
<path d="M5497 803 c-9 -8 -9 -63 0 -63 3 0 15 7 25 17 31 28 20 -4 -14 -37
-28 -28 -30 -33 -15 -42 10 -5 17 -21 17 -36 0 -16 5 -33 12 -40 7 -7 8 -12 4
-12 -5 0 -15 8 -22 17 -7 10 -16 14 -21 9 -4 -5 -3 -11 4 -13 15 -5 5 -33 -12
-33 -7 0 -15 -6 -18 -12 -3 -9 -12 -5 -30 11 l-26 24 -11 -28 c-7 -19 -15 -25
-26 -21 -9 3 -18 6 -20 6 -2 0 -4 7 -4 15 0 8 6 12 13 9 14 -5 45 42 34 53 -4
3 -15 -2 -26 -11 -10 -9 -29 -18 -42 -18 -31 -2 -59 -26 -59 -50 0 -11 5 -16
10 -13 22 14 31 -8 12 -29 -16 -16 -18 -23 -8 -32 9 -9 15 -4 25 18 11 25 17
29 40 23 35 -9 36 -11 23 -40 -6 -14 -8 -25 -4 -25 13 0 33 17 31 26 -4 25 3
27 21 4 11 -14 20 -19 20 -12 0 7 7 20 15 28 8 8 12 21 9 29 -4 9 0 15 10 15
9 0 16 -4 16 -9 0 -17 40 -19 58 -2 31 26 62 106 62 156 0 57 -24 101 -63 115
-35 12 -32 12 -40 3z m63 -117 c0 -2 -7 -6 -15 -10 -8 -3 -15 -1 -15 4 0 6 7
10 15 10 8 0 15 -2 15 -4z m-13 -108 c-3 -8 -6 -5 -6 6 -1 11 2 17 5 13 3 -3
4 -12 1 -19z"/>
<path d="M5427 793 c-10 -9 -9 -23 1 -23 5 0 17 7 28 15 19 14 19 14 -2 15
-11 0 -24 -3 -27 -7z"/>
<path d="M5388 752 c-4 -15 -11 -20 -22 -16 -9 4 -16 1 -16 -6 0 -6 9 -14 20
-17 11 -3 20 -10 20 -15 0 -5 7 -2 16 6 20 20 35 21 28 1 -4 -8 -2 -15 4 -15
14 0 35 28 28 39 -3 5 0 12 6 14 7 3 1 6 -14 6 -15 1 -33 -6 -42 -14 -13 -13
-15 -12 -18 12 -3 26 -4 27 -10 5z"/>
<path d="M3178 683 c7 -3 16 -2 19 1 4 3 -2 6 -13 5 -11 0 -14 -3 -6 -6z"/>
<path d="M5312 660 c0 -14 2 -19 5 -12 2 6 2 18 0 25 -3 6 -5 1 -5 -13z"/>
<path d="M2977 631 c-13 -16 -35 -31 -48 -33 -16 -2 -25 -11 -27 -25 -2 -12
-9 -20 -15 -18 -19 7 -38 -10 -31 -28 3 -9 12 -17 20 -17 17 0 18 -17 2 -23
-8 -3 -6 -6 5 -6 11 -1 17 6 17 19 0 11 -6 20 -12 20 -20 1 24 30 44 30 10 0
18 5 18 10 0 6 13 10 28 10 20 0 32 8 45 29 16 27 16 31 1 45 -20 20 -18 21
-47 -13z"/>
<path d="M6041 644 c0 -11 3 -14 6 -6 3 7 2 16 -1 19 -3 4 -6 -2 -5 -13z"/>
<path d="M5260 615 c0 -8 4 -15 10 -15 5 0 7 7 4 15 -4 8 -8 15 -10 15 -2 0
-4 -7 -4 -15z"/>
<path d="M5443 616 c3 -8 1 -17 -6 -20 -9 -3 -9 -5 0 -5 7 -1 17 8 23 19 9 16
8 20 -6 20 -10 0 -14 -5 -11 -14z"/>
<path d="M6690 589 c0 -5 5 -7 10 -4 6 3 10 8 10 11 0 2 -4 4 -10 4 -5 0 -10
-5 -10 -11z"/>
<path d="M3226 535 c5 -13 9 -13 23 -3 9 7 18 14 20 15 2 2 -8 3 -22 3 -20 0
-25 -4 -21 -15z"/>
</g>
</svg>
