<svg width="207" height="90" viewBox="0 0 207 90" fill="none" xmlns="http://www.w3.org/2000/svg">
<g filter="url(#filter0_d_796_339)">
<rect x="5" width="197" height="63.4407" rx="5.9284" fill="#6D3AFF"/>
<path d="M32.9585 19.0532C32.9585 19.6559 32.8202 20.2092 32.5435 20.7131C32.2669 21.2072 31.842 21.6073 31.2689 21.9136C30.6958 22.2199 29.9844 22.3731 29.1347 22.3731H27.5637V26.108H25.0293V15.7036H29.1347C29.9647 15.7036 30.6662 15.8469 31.2393 16.1334C31.8123 16.42 32.2422 16.8152 32.5287 17.3191C32.8152 17.823 32.9585 18.4011 32.9585 19.0532ZM28.942 20.3574C29.4262 20.3574 29.7868 20.2438 30.0239 20.0165C30.2611 19.7893 30.3796 19.4682 30.3796 19.0532C30.3796 18.6382 30.2611 18.3171 30.0239 18.0898C29.7868 17.8626 29.4262 17.7489 28.942 17.7489H27.5637V20.3574H28.942ZM36.8123 19.2162C37.1087 18.7617 37.4793 18.406 37.9239 18.1491C38.3685 17.8823 38.8625 17.7489 39.406 17.7489V20.4315H38.7094C38.077 20.4315 37.6028 20.5699 37.2866 20.8465C36.9704 21.1133 36.8123 21.5876 36.8123 22.2693V26.108H34.2779V17.8379H36.8123V19.2162ZM44.3819 26.2265C43.5717 26.2265 42.8405 26.0536 42.1884 25.7078C41.5462 25.362 41.0373 24.8679 40.6618 24.2257C40.2962 23.5835 40.1135 22.8325 40.1135 21.9729C40.1135 21.1232 40.3012 20.3772 40.6767 19.7349C41.0521 19.0828 41.5659 18.5838 42.218 18.238C42.8702 17.8922 43.6013 17.7193 44.4115 17.7193C45.2218 17.7193 45.9529 17.8922 46.6051 18.238C47.2572 18.5838 47.771 19.0828 48.1464 19.7349C48.5219 20.3772 48.7096 21.1232 48.7096 21.9729C48.7096 22.8226 48.517 23.5736 48.1316 24.2257C47.7562 24.8679 47.2374 25.362 46.5754 25.7078C45.9233 26.0536 45.1921 26.2265 44.3819 26.2265ZM44.3819 24.033C44.8661 24.033 45.2761 23.8552 45.612 23.4995C45.9579 23.1438 46.1308 22.6349 46.1308 21.9729C46.1308 21.3109 45.9628 20.8021 45.6269 20.4463C45.3008 20.0906 44.8957 19.9128 44.4115 19.9128C43.9175 19.9128 43.5075 20.0906 43.1814 20.4463C42.8553 20.7922 42.6923 21.301 42.6923 21.9729C42.6923 22.6349 42.8504 23.1438 43.1666 23.4995C43.4926 23.8552 43.8978 24.033 44.3819 24.033ZM54.2041 19.9424H52.8405V26.108H50.3061V19.9424H49.3872V17.8379H50.3061V17.6007C50.3061 16.583 50.5976 15.8123 51.1806 15.2886C51.7635 14.7551 52.6182 14.4883 53.7446 14.4883C53.9323 14.4883 54.0707 14.4932 54.1596 14.5031V16.6522C53.6754 16.6225 53.3346 16.6917 53.1369 16.8597C52.9393 17.0276 52.8405 17.329 52.8405 17.7637V17.8379H54.2041V19.9424ZM56.5806 26.2265C56.136 26.2265 55.7704 26.0981 55.4839 25.8412C55.2072 25.5744 55.0689 25.2484 55.0689 24.863C55.0689 24.4678 55.2072 24.1368 55.4839 23.87C55.7704 23.6032 56.136 23.4698 56.5806 23.4698C57.0154 23.4698 57.3711 23.6032 57.6477 23.87C57.9343 24.1368 58.0775 24.4678 58.0775 24.863C58.0775 25.2484 57.9343 25.5744 57.6477 25.8412C57.3711 26.0981 57.0154 26.2265 56.5806 26.2265ZM70.6478 19.0532C70.6478 19.6559 70.5095 20.2092 70.2328 20.7131C69.9562 21.2072 69.5313 21.6073 68.9582 21.9136C68.3852 22.2199 67.6738 22.3731 66.824 22.3731H65.253V26.108H62.7186V15.7036H66.824C67.654 15.7036 68.3555 15.8469 68.9286 16.1334C69.5017 16.42 69.9315 16.8152 70.218 17.3191C70.5046 17.823 70.6478 18.4011 70.6478 19.0532ZM66.6313 20.3574C67.1155 20.3574 67.4761 20.2438 67.7133 20.0165C67.9504 19.7893 68.069 19.4682 68.069 19.0532C68.069 18.6382 67.9504 18.3171 67.7133 18.0898C67.4761 17.8626 67.1155 17.7489 66.6313 17.7489H65.253V20.3574H66.6313ZM74.5016 19.2162C74.7981 18.7617 75.1686 18.406 75.6132 18.1491C76.0578 17.8823 76.5519 17.7489 77.0953 17.7489V20.4315H76.3987C75.7664 20.4315 75.2921 20.5699 74.9759 20.8465C74.6597 21.1133 74.5016 21.5876 74.5016 22.2693V26.108H71.9673V17.8379H74.5016V19.2162ZM77.8028 21.9581C77.8028 21.1084 77.9609 20.3624 78.2771 19.7201C78.6031 19.0779 79.0428 18.5838 79.5961 18.238C80.1494 17.8922 80.767 17.7193 81.4488 17.7193C82.0317 17.7193 82.5406 17.8379 82.9753 18.075C83.4199 18.3121 83.7608 18.6234 83.998 19.0087V17.8379H86.5324V26.108H83.998V24.9371C83.751 25.3225 83.4051 25.6337 82.9605 25.8708C82.5257 26.108 82.0169 26.2265 81.4339 26.2265C80.762 26.2265 80.1494 26.0536 79.5961 25.7078C79.0428 25.3521 78.6031 24.8531 78.2771 24.2109C77.9609 23.5588 77.8028 22.8078 77.8028 21.9581ZM83.998 21.9729C83.998 21.3405 83.8201 20.8416 83.4644 20.476C83.1186 20.1104 82.6937 19.9276 82.1898 19.9276C81.6859 19.9276 81.2561 20.1104 80.9004 20.476C80.5546 20.8317 80.3816 21.3257 80.3816 21.9581C80.3816 22.5905 80.5546 23.0944 80.9004 23.4698C81.2561 23.8354 81.6859 24.0182 82.1898 24.0182C82.6937 24.0182 83.1186 23.8354 83.4644 23.4698C83.8201 23.1042 83.998 22.6053 83.998 21.9729ZM93.405 17.7489C94.3733 17.7489 95.144 18.0651 95.7171 18.6975C96.3001 19.32 96.5915 20.1796 96.5915 21.2763V26.108H94.072V21.6172C94.072 21.0639 93.9287 20.6341 93.6422 20.3278C93.3556 20.0215 92.9703 19.8683 92.4861 19.8683C92.002 19.8683 91.6166 20.0215 91.3301 20.3278C91.0435 20.6341 90.9003 21.0639 90.9003 21.6172V26.108H88.3659V17.8379H90.9003V18.9346C91.1572 18.569 91.503 18.2825 91.9377 18.075C92.3725 17.8576 92.8616 17.7489 93.405 17.7489ZM97.8488 21.9581C97.8488 21.1084 98.0069 20.3624 98.323 19.7201C98.6491 19.0779 99.0888 18.5838 99.6421 18.238C100.195 17.8922 100.813 17.7193 101.495 17.7193C102.078 17.7193 102.587 17.8379 103.021 18.075C103.466 18.3121 103.807 18.6234 104.044 19.0087V17.8379H106.578V26.108H104.044V24.9371C103.797 25.3225 103.451 25.6337 103.006 25.8708C102.572 26.108 102.063 26.2265 101.48 26.2265C100.808 26.2265 100.195 26.0536 99.6421 25.7078C99.0888 25.3521 98.6491 24.8531 98.323 24.2109C98.0069 23.5588 97.8488 22.8078 97.8488 21.9581ZM104.044 21.9729C104.044 21.3405 103.866 20.8416 103.51 20.476C103.165 20.1104 102.74 19.9276 102.236 19.9276C101.732 19.9276 101.302 20.1104 100.946 20.476C100.601 20.8317 100.428 21.3257 100.428 21.9581C100.428 22.5905 100.601 23.0944 100.946 23.4698C101.302 23.8354 101.732 24.0182 102.236 24.0182C102.74 24.0182 103.165 23.8354 103.51 23.4698C103.866 23.1042 104.044 22.6053 104.044 21.9729ZM112.132 23.7366L113.925 17.8379H116.623L113.688 26.108H110.561L107.626 17.8379H110.339L112.132 23.7366ZM127.737 18.9939C127.549 18.6481 127.277 18.3862 126.922 18.2084C126.576 18.0206 126.166 17.9268 125.692 17.9268C124.871 17.9268 124.214 18.1985 123.72 18.7419C123.226 19.2755 122.979 19.9918 122.979 20.891C122.979 21.8494 123.236 22.6003 123.75 23.1438C124.274 23.6773 124.99 23.9441 125.899 23.9441C126.521 23.9441 127.045 23.786 127.47 23.4698C127.905 23.1537 128.221 22.6991 128.419 22.1063H125.202V20.2389H130.716V22.5954C130.528 23.2278 130.207 23.8157 129.752 24.3591C129.308 24.9025 128.74 25.3422 128.048 25.6782C127.356 26.0141 126.576 26.1821 125.706 26.1821C124.679 26.1821 123.76 25.9598 122.95 25.5151C122.149 25.0606 121.522 24.4332 121.067 23.6329C120.623 22.8325 120.4 21.9186 120.4 20.891C120.4 19.8634 120.623 18.9494 121.067 18.1491C121.522 17.3389 122.149 16.7115 122.95 16.2668C123.75 15.8123 124.664 15.5851 125.692 15.5851C126.936 15.5851 127.984 15.8864 128.834 16.4891C129.693 17.0919 130.261 17.9268 130.538 18.9939H127.737ZM131.616 21.9581C131.616 21.1084 131.774 20.3624 132.09 19.7201C132.416 19.0779 132.856 18.5838 133.409 18.238C133.962 17.8922 134.58 17.7193 135.262 17.7193C135.845 17.7193 136.354 17.8379 136.788 18.075C137.233 18.3121 137.574 18.6234 137.811 19.0087V17.8379H140.345V26.108H137.811V24.9371C137.564 25.3225 137.218 25.6337 136.773 25.8708C136.339 26.108 135.83 26.2265 135.247 26.2265C134.575 26.2265 133.962 26.0536 133.409 25.7078C132.856 25.3521 132.416 24.8531 132.09 24.2109C131.774 23.5588 131.616 22.8078 131.616 21.9581ZM137.811 21.9729C137.811 21.3405 137.633 20.8416 137.277 20.476C136.932 20.1104 136.507 19.9276 136.003 19.9276C135.499 19.9276 135.069 20.1104 134.713 20.476C134.368 20.8317 134.195 21.3257 134.195 21.9581C134.195 22.5905 134.368 23.0944 134.713 23.4698C135.069 23.8354 135.499 24.0182 136.003 24.0182C136.507 24.0182 136.932 23.8354 137.277 23.4698C137.633 23.1042 137.811 22.6053 137.811 21.9729ZM147.218 17.7489C148.186 17.7489 148.957 18.0651 149.53 18.6975C150.113 19.32 150.404 20.1796 150.404 21.2763V26.108H147.885V21.6172C147.885 21.0639 147.742 20.6341 147.455 20.3278C147.169 20.0215 146.783 19.8683 146.299 19.8683C145.815 19.8683 145.43 20.0215 145.143 20.3278C144.856 20.6341 144.713 21.0639 144.713 21.6172V26.108H142.179V17.8379H144.713V18.9346C144.97 18.569 145.316 18.2825 145.751 18.075C146.185 17.8576 146.675 17.7489 147.218 17.7489ZM151.662 21.9581C151.662 21.1084 151.82 20.3624 152.136 19.7201C152.462 19.0779 152.902 18.5838 153.455 18.238C154.008 17.8922 154.626 17.7193 155.308 17.7193C155.891 17.7193 156.4 17.8379 156.834 18.075C157.279 18.3121 157.62 18.6234 157.857 19.0087V17.8379H160.391V26.108H157.857V24.9371C157.61 25.3225 157.264 25.6337 156.819 25.8708C156.385 26.108 155.876 26.2265 155.293 26.2265C154.621 26.2265 154.008 26.0536 153.455 25.7078C152.902 25.3521 152.462 24.8531 152.136 24.2109C151.82 23.5588 151.662 22.8078 151.662 21.9581ZM157.857 21.9729C157.857 21.3405 157.679 20.8416 157.323 20.476C156.978 20.1104 156.553 19.9276 156.049 19.9276C155.545 19.9276 155.115 20.1104 154.759 20.476C154.413 20.8317 154.241 21.3257 154.241 21.9581C154.241 22.5905 154.413 23.0944 154.759 23.4698C155.115 23.8354 155.545 24.0182 156.049 24.0182C156.553 24.0182 156.978 23.8354 157.323 23.4698C157.679 23.1042 157.857 22.6053 157.857 21.9729ZM166.834 23.9589V26.108H165.545C164.626 26.108 163.909 25.8857 163.396 25.441C162.882 24.9865 162.625 24.2504 162.625 23.2327V19.9424H161.617V17.8379H162.625V15.8222H165.159V17.8379H166.819V19.9424H165.159V23.2623C165.159 23.5094 165.219 23.6872 165.337 23.7959C165.456 23.9046 165.653 23.9589 165.93 23.9589H166.834ZM170.78 19.2162C171.077 18.7617 171.447 18.406 171.892 18.1491C172.336 17.8823 172.83 17.7489 173.374 17.7489V20.4315H172.677C172.045 20.4315 171.571 20.5699 171.255 20.8465C170.938 21.1133 170.78 21.5876 170.78 22.2693V26.108H168.246V17.8379H170.78V19.2162ZM174.081 21.9581C174.081 21.1084 174.239 20.3624 174.556 19.7201C174.882 19.0779 175.321 18.5838 175.875 18.238C176.428 17.8922 177.046 17.7193 177.727 17.7193C178.31 17.7193 178.819 17.8379 179.254 18.075C179.699 18.3121 180.039 18.6234 180.277 19.0087V17.8379H182.811V26.108H180.277V24.9371C180.03 25.3225 179.684 25.6337 179.239 25.8708C178.804 26.108 178.295 26.2265 177.713 26.2265C177.041 26.2265 176.428 26.0536 175.875 25.7078C175.321 25.3521 174.882 24.8531 174.556 24.2109C174.239 23.5588 174.081 22.8078 174.081 21.9581ZM180.277 21.9729C180.277 21.3405 180.099 20.8416 179.743 20.476C179.397 20.1104 178.972 19.9276 178.468 19.9276C177.964 19.9276 177.535 20.1104 177.179 20.476C176.833 20.8317 176.66 21.3257 176.66 21.9581C176.66 22.5905 176.833 23.0944 177.179 23.4698C177.535 23.8354 177.964 24.0182 178.468 24.0182C178.972 24.0182 179.397 23.8354 179.743 23.4698C180.099 23.1042 180.277 22.6053 180.277 21.9729Z" fill="white"/>
<path d="M24.7393 43.7737C24.7393 42.9338 24.9287 42.1804 25.3074 41.5135C25.6862 40.8383 26.2008 40.3113 26.8513 39.9326C27.51 39.5538 28.2387 39.3644 29.0374 39.3644C29.976 39.3644 30.7953 39.5909 31.4952 40.0437C32.1951 40.4966 32.7056 41.1388 33.0267 41.9704H31.6804C31.4417 41.4517 31.0958 41.0524 30.643 40.7724C30.1983 40.4925 29.6631 40.3525 29.0374 40.3525C28.4363 40.3525 27.897 40.4925 27.4194 40.7724C26.9418 41.0524 26.5672 41.4517 26.2955 41.9704C26.0238 42.4809 25.8879 43.082 25.8879 43.7737C25.8879 44.4571 26.0238 45.0582 26.2955 45.5769C26.5672 46.0874 26.9418 46.4826 27.4194 46.7626C27.897 47.0425 28.4363 47.1825 29.0374 47.1825C29.6631 47.1825 30.1983 47.0466 30.643 46.7749C31.0958 46.495 31.4417 46.0956 31.6804 45.5769H33.0267C32.7056 46.4003 32.1951 47.0384 31.4952 47.4913C30.7953 47.9359 29.976 48.1582 29.0374 48.1582C28.2387 48.1582 27.51 47.9729 26.8513 47.6024C26.2008 47.2237 25.6862 46.7008 25.3074 46.0339C24.9287 45.3669 24.7393 44.6135 24.7393 43.7737ZM35.8237 40.3895V43.2673H38.9608V44.1936H35.8237V47.1578H39.3313V48.0841H34.6997V39.4632H39.3313V40.3895H35.8237ZM44.9348 48.1706C44.1361 48.1706 43.4074 47.9853 42.7487 47.6148C42.09 47.236 41.5672 46.7132 41.1802 46.0462C40.8014 45.371 40.612 44.6135 40.612 43.7737C40.612 42.9338 40.8014 42.1804 41.1802 41.5135C41.5672 40.8383 42.09 40.3154 42.7487 39.9449C43.4074 39.5661 44.1361 39.3768 44.9348 39.3768C45.7417 39.3768 46.4746 39.5661 47.1333 39.9449C47.792 40.3154 48.3107 40.8342 48.6895 41.5011C49.0682 42.1681 49.2576 42.9256 49.2576 43.7737C49.2576 44.6218 49.0682 45.3793 48.6895 46.0462C48.3107 46.7132 47.792 47.236 47.1333 47.6148C46.4746 47.9853 45.7417 48.1706 44.9348 48.1706ZM44.9348 47.1948C45.5359 47.1948 46.0752 47.0549 46.5528 46.7749C47.0386 46.495 47.4173 46.0956 47.6891 45.5769C47.969 45.0582 48.109 44.4571 48.109 43.7737C48.109 43.082 47.969 42.4809 47.6891 41.9704C47.4173 41.4517 47.0427 41.0524 46.5651 40.7724C46.0876 40.4925 45.5441 40.3525 44.9348 40.3525C44.3255 40.3525 43.7821 40.4925 43.3045 40.7724C42.8269 41.0524 42.4482 41.4517 42.1682 41.9704C41.8965 42.4809 41.7607 43.082 41.7607 43.7737C41.7607 44.4571 41.8965 45.0582 42.1682 45.5769C42.4482 46.0956 42.8269 46.495 43.3045 46.7749C43.7903 47.0549 44.3337 47.1948 44.9348 47.1948ZM51.9023 46.5279L50.519 49.8503H49.7656L50.6672 46.5279H51.9023ZM62.238 41.9951C62.238 42.7115 61.991 43.3085 61.497 43.786C61.0112 44.2553 60.266 44.49 59.2615 44.49H57.6065V48.0841H56.4826V39.4756H59.2615C60.2331 39.4756 60.97 39.7102 61.4723 40.1796C61.9828 40.6489 62.238 41.2541 62.238 41.9951ZM59.2615 43.5637C59.8873 43.5637 60.3484 43.4278 60.6448 43.1561C60.9412 42.8844 61.0894 42.4974 61.0894 41.9951C61.0894 40.933 60.4801 40.4019 59.2615 40.4019H57.6065V43.5637H59.2615ZM70.2673 39.4756V48.0841H69.1434V44.1812H64.7589V48.0841H63.6349V39.4756H64.7589V43.2549H69.1434V39.4756H70.2673ZM77.275 46.1697H73.5203L72.8287 48.0841H71.643L74.7554 39.525H76.0523L79.1523 48.0841H77.9666L77.275 46.1697ZM76.9539 45.2558L75.3977 40.9083L73.8415 45.2558H76.9539ZM85.0415 48.0841L82.9913 44.5641H81.6327V48.0841H80.5088V39.4756H83.2877C83.9382 39.4756 84.4858 39.5867 84.9304 39.809C85.3832 40.0314 85.7208 40.3319 85.9432 40.7107C86.1655 41.0894 86.2766 41.5217 86.2766 42.0075C86.2766 42.6003 86.1037 43.1232 85.7579 43.5761C85.4203 44.0289 84.9098 44.3295 84.2264 44.4777L86.3878 48.0841H85.0415ZM81.6327 43.6625H83.2877C83.897 43.6625 84.354 43.5143 84.6587 43.2179C84.9633 42.9132 85.1156 42.5098 85.1156 42.0075C85.1156 41.497 84.9633 41.1018 84.6587 40.8218C84.3622 40.5419 83.9053 40.4019 83.2877 40.4019H81.6327V43.6625ZM96.7551 39.5373V48.0841H95.6311V41.7111L92.7904 48.0841H92L89.1469 41.6987V48.0841H88.023V39.5373H89.2334L92.3952 46.602L95.557 39.5373H96.7551ZM103.75 46.1697H99.995L99.3034 48.0841H98.1177L101.23 39.525H102.527L105.627 48.0841H104.441L103.75 46.1697ZM103.429 45.2558L101.872 40.9083L100.316 45.2558H103.429ZM106.564 43.7737C106.564 42.9338 106.753 42.1804 107.132 41.5135C107.51 40.8383 108.025 40.3113 108.676 39.9326C109.334 39.5538 110.063 39.3644 110.862 39.3644C111.8 39.3644 112.62 39.5909 113.319 40.0437C114.019 40.4966 114.53 41.1388 114.851 41.9704H113.505C113.266 41.4517 112.92 41.0524 112.467 40.7724C112.023 40.4925 111.487 40.3525 110.862 40.3525C110.261 40.3525 109.721 40.4925 109.244 40.7724C108.766 41.0524 108.391 41.4517 108.12 41.9704C107.848 42.4809 107.712 43.082 107.712 43.7737C107.712 44.4571 107.848 45.0582 108.12 45.5769C108.391 46.0874 108.766 46.4826 109.244 46.7626C109.721 47.0425 110.261 47.1825 110.862 47.1825C111.487 47.1825 112.023 47.0466 112.467 46.7749C112.92 46.495 113.266 46.0956 113.505 45.5769H114.851C114.53 46.4003 114.019 47.0384 113.319 47.4913C112.62 47.9359 111.8 48.1582 110.862 48.1582C110.063 48.1582 109.334 47.9729 108.676 47.6024C108.025 47.2237 107.51 46.7008 107.132 46.0339C106.753 45.3669 106.564 44.6135 106.564 43.7737ZM121.613 46.1697H117.858L117.166 48.0841H115.981L119.093 39.525H120.39L123.49 48.0841H122.304L121.613 46.1697ZM121.291 45.2558L119.735 40.9083L118.179 45.2558H121.291ZM127.526 39.4756C128.465 39.4756 129.276 39.6526 129.96 40.0067C130.651 40.3525 131.178 40.8506 131.54 41.5011C131.911 42.1516 132.096 42.9173 132.096 43.7984C132.096 44.6794 131.911 45.4451 131.54 46.0956C131.178 46.7379 130.651 47.2319 129.96 47.5777C129.276 47.9153 128.465 48.0841 127.526 48.0841H124.846V39.4756H127.526ZM127.526 47.1578C128.638 47.1578 129.486 46.8655 130.071 46.2809C130.655 45.688 130.948 44.8605 130.948 43.7984C130.948 42.728 130.651 41.8922 130.058 41.2911C129.474 40.6901 128.63 40.3895 127.526 40.3895H125.97V47.1578H127.526Z" fill="white"/>
<path d="M45.097 63.2363H68.2337L67.4441 63.8293C59.8242 69.5515 51.4119 74.1337 42.4716 77.4318L38.0977 79.0454L39.7055 77.4073C42.8372 74.2166 44.7055 69.9986 44.9639 65.5353L45.097 63.2363Z" fill="#6D3AFF"/>
</g>
<defs>
<filter id="filter0_d_796_339" x="0.548022" y="0" width="205.904" height="89.0623" filterUnits="userSpaceOnUse" color-interpolation-filters="sRGB">
<feFlood flood-opacity="0" result="BackgroundImageFix"/>
<feColorMatrix in="SourceAlpha" type="matrix" values="0 0 0 0 0 0 0 0 0 0 0 0 0 0 0 0 0 0 127 0" result="hardAlpha"/>
<feOffset dy="5.56497"/>
<feGaussianBlur stdDeviation="2.22599"/>
<feComposite in2="hardAlpha" operator="out"/>
<feColorMatrix type="matrix" values="0 0 0 0 0.313333 0 0 0 0 0.313333 0 0 0 0 0.313333 0 0 0 0.15 0"/>
<feBlend mode="normal" in2="BackgroundImageFix" result="effect1_dropShadow_796_339"/>
<feBlend mode="normal" in="SourceGraphic" in2="effect1_dropShadow_796_339" result="shape"/>
</filter>
</defs>
</svg>
