<svg width="22" height="22" viewBox="0 0 22 22" fill="none" xmlns="http://www.w3.org/2000/svg">
<path d="M22 10.783L19.56 8.00564L19.9 4.32917L16.29 3.50996L14.4 0.333008L11 1.79161L7.6 0.333008L5.71 3.50996L2.1 4.31918L2.44 7.99565L0 10.783L2.44 13.5603L2.1 17.2468L5.71 18.066L7.6 21.2429L11 19.7743L14.4 21.2329L16.29 18.056L19.9 17.2368L19.56 13.5603L22 10.783ZM9 15.7782L5 11.782L6.41 10.3734L9 12.9509L15.59 6.36721L17 7.78585L9 15.7782Z" fill="#13EA00"/>
<path d="M22 10.783L19.56 8.00564L19.9 4.32917L16.29 3.50996L14.4 0.333008L11 1.79161L7.6 0.333008L5.71 3.50996L2.1 4.31918L2.44 7.99565L0 10.783L2.44 13.5603L2.1 17.2468L5.71 18.066L7.6 21.2429L11 19.7743L14.4 21.2329L16.29 18.056L19.9 17.2368L19.56 13.5603L22 10.783ZM9 15.7782L5 11.782L6.41 10.3734L9 12.9509L15.59 6.36721L17 7.78585L9 15.7782Z" fill="#13EA00"/>
<path d="M22 10.783L19.56 8.00564L19.9 4.32917L16.29 3.50996L14.4 0.333008L11 1.79161L7.6 0.333008L5.71 3.50996L2.1 4.31918L2.44 7.99565L0 10.783L2.44 13.5603L2.1 17.2468L5.71 18.066L7.6 21.2429L11 19.7743L14.4 21.2329L16.29 18.056L19.9 17.2368L19.56 13.5603L22 10.783ZM9 15.7782L5 11.782L6.41 10.3734L9 12.9509L15.59 6.36721L17 7.78585L9 15.7782Z" fill="#13EA00"/>
</svg>
